<svg width="54" height="72" viewBox="0 0 54 72" fill="none" xmlns="http://www.w3.org/2000/svg">
<path d="M27 0C41.8875 0 54 12.2962 54 27.4087C54 41.2687 32.8875 67.4175 30.48 70.3538C29.625 71.3962 28.35 72 27 72C25.65 72 24.375 71.3962 23.52 70.3538C21.1125 67.4175 0 41.2725 0 27.4087C0 12.2962 12.1125 0 27 0ZM27 4.5C14.5725 4.5 4.5 14.76 4.5 27.4087C4.5 40.0575 27 67.5 27 67.5C27 67.5 49.5 40.0612 49.5 27.4087C49.5 14.7562 39.4275 4.5 27 4.5ZM27 13.5C34.455 13.5 40.5 19.545 40.5 27C40.5 34.455 34.455 40.5 27 40.5C19.545 40.5 13.5 34.455 13.5 27C13.5 19.545 19.545 13.5 27 13.5ZM27 18C22.0387 18 18 22.0387 18 27C18 31.9613 22.0387 36 27 36C31.9613 36 36 31.9613 36 27C36 22.0387 31.9613 18 27 18Z" fill="#FDB92D"/>
</svg>
